<svg xmlns="http://www.w3.org/2000/svg" width="1600" height="1200" viewBox="0 0 1600 1200" role="img" aria-labelledby="title desc">
  <title id="title">Purveyors visionary catalog redesign</title>
  <desc id="desc">A redesigned public catalog workspace with filter rail, market pulse, coffee cards, process transparency, and price ladder.</desc>
  <defs>
    <linearGradient id="bg" x1="0" y1="0" x2="1" y2="1"><stop offset="0" stop-color="#0f100c"/><stop offset="0.52" stop-color="#20130d"/><stop offset="1" stop-color="#092429"/></linearGradient>
    <linearGradient id="panel" x1="0" y1="0" x2="1" y2="1"><stop offset="0" stop-color="#fff2d5" stop-opacity="0.13"/><stop offset="1" stop-color="#ffffff" stop-opacity="0.055"/></linearGradient>
    <radialGradient id="glow" cx="86%" cy="4%" r="70%"><stop offset="0" stop-color="#49ead7" stop-opacity="0.26"/><stop offset="0.5" stop-color="#f6b35e" stop-opacity="0.12"/><stop offset="1" stop-color="#000" stop-opacity="0"/></radialGradient>
    <filter id="shadow"><feDropShadow dx="0" dy="18" stdDeviation="22" flood-color="#000" flood-opacity="0.36"/></filter>
    <style>.sans{font-family:Inter,ui-sans-serif,system-ui,-apple-system,BlinkMacSystemFont,'Segoe UI',sans-serif}.serif{font-family:Georgia,'Times New Roman',serif}.cream{fill:#fff7e8}.muted{fill:#d8c7af;opacity:.78}.amber{fill:#f6b35e}.teal{fill:#49ead7}.panel{fill:url(#panel);stroke:#fff0d0;stroke-opacity:.16}.chip{fill:#fff7e8;fill-opacity:.08;stroke:#fff0d0;stroke-opacity:.16}</style>
  </defs>
  <rect width="1600" height="1200" fill="url(#bg)"/><rect width="1600" height="1200" fill="url(#glow)"/>
  <g class="sans" transform="translate(64 46)">
    <text x="0" y="24" class="cream" font-size="25" font-weight="900">purveyors.io</text><text x="240" y="23" class="muted" font-size="16">Catalog</text><text x="330" y="23" class="muted" font-size="16">Market Data</text><text x="462" y="23" class="muted" font-size="16">API</text><text x="520" y="23" class="muted" font-size="16">Docs</text>
    <rect x="1212" y="-12" width="126" height="42" rx="21" class="chip"/><text x="1247" y="14" class="cream" font-size="15" font-weight="800">Sign in</text><rect x="1354" y="-12" width="136" height="42" rx="21" fill="#f6b35e"/><text x="1386" y="14" fill="#1b1009" font-size="15" font-weight="900">See plans</text>
  </g>
  <g transform="translate(64 116)">
    <text x="0" y="48" class="serif cream" font-size="62" font-weight="700">Green Coffee Catalog</text>
    <text x="0" y="88" class="sans muted" font-size="20">A sourcing desk for live lots, price intelligence, and process transparency across 41+ importers.</text>
    <rect x="1130" y="14" width="258" height="52" rx="26" fill="#f6b35e"/><text x="1171" y="47" class="sans" fill="#1b1009" font-size="17" font-weight="900">Copy filtered link</text>
    <rect x="1404" y="14" width="96" height="52" rx="26" class="chip"/><text x="1433" y="47" class="sans cream" font-size="17" font-weight="800">API</text>
  </g>
  <g transform="translate(64 244)" filter="url(#shadow)">
    <rect width="330" height="870" rx="34" class="panel"/>
    <g class="sans" transform="translate(28 34)">
      <text x="0" y="0" class="cream" font-size="18" font-weight="900">Refine the market</text>
      <text x="0" y="30" class="muted" font-size="14">Public filters</text>
      <g transform="translate(0 64)"><rect width="274" height="50" rx="16" class="chip"/><text x="18" y="31" class="muted" font-size="15">Origin · Ethiopia, Guatemala</text></g>
      <g transform="translate(0 128)"><rect width="274" height="50" rx="16" class="chip"/><text x="18" y="31" class="muted" font-size="15">Process · Washed, Natural</text></g>
      <g transform="translate(0 192)"><rect width="274" height="50" rx="16" class="chip"/><text x="18" y="31" class="muted" font-size="15">Search coffees…</text></g>
      <text x="0" y="304" class="amber" font-size="13" font-weight="900">MEMBER PROCESS INTELLIGENCE</text>
      <g transform="translate(0 330)"><rect width="274" height="58" rx="17" fill="#49ead7" fill-opacity="0.12" stroke="#49ead7" stroke-opacity="0.22"/><text x="18" y="26" class="cream" font-size="14" font-weight="800">Disclosure level</text><text x="18" y="46" class="muted" font-size="13">Structured / high-detail</text></g>
      <g transform="translate(0 404)"><rect width="274" height="58" rx="17" fill="#49ead7" fill-opacity="0.12" stroke="#49ead7" stroke-opacity="0.22"/><text x="18" y="26" class="cream" font-size="14" font-weight="800">Fermentation & additives</text><text x="18" y="46" class="muted" font-size="13">Evidence-backed facets</text></g>
      <g transform="translate(0 508)"><text x="0" y="0" class="cream" font-size="18" font-weight="900">Market pulse</text><rect y="24" width="274" height="144" rx="22" fill="#071f23" fill-opacity="0.66" stroke="#49ead7" stroke-opacity="0.2"/><text x="20" y="62" class="teal" font-size="30" font-weight="900">1,064</text><text x="104" y="62" class="muted" font-size="15">stocked public lots</text><text x="20" y="98" class="amber" font-size="22" font-weight="900">15</text><text x="54" y="98" class="muted" font-size="15">visible anonymously</text><text x="20" y="128" class="muted" font-size="14">Sign in to continue browsing.</text></g>
      <rect x="0" y="728" width="274" height="52" rx="26" fill="#f6b35e"/><text x="52" y="761" fill="#1b1009" font-size="16" font-weight="900">Create free account</text>
    </g>
  </g>
  <g transform="translate(430 244)">
    <rect width="666" height="154" rx="34" class="panel"/>
    <g class="sans" transform="translate(30 32)"><text x="0" y="0" class="cream" font-size="18" font-weight="900">Today’s sourcing brief</text><text x="0" y="34" class="muted" font-size="16">Washed Ethiopia lots are down 4.9% WoW while new Guatemala naturals enter above origin median.</text><text x="0" y="78" class="teal" font-size="15" font-weight="900">3 arrivals</text><text x="112" y="78" class="amber" font-size="15" font-weight="900">2 delistings</text><text x="238" y="78" class="cream" font-size="15" font-weight="900">$6.90–$8.40 IQR</text></g>
  </g>
  <g transform="translate(1130 244)">
    <rect width="406" height="154" rx="34" class="panel"/><g class="sans" transform="translate(28 32)"><text x="0" y="0" class="cream" font-size="18" font-weight="900">Saved research board</text><text x="0" y="34" class="muted" font-size="15">Pin lots, compare similar coffees, and hand off shortlist links to roasting or buying.</text><rect y="76" width="152" height="38" rx="19" class="chip"/><text x="25" y="100" class="teal" font-size="13" font-weight="900">Compare similar</text><rect x="166" y="76" width="122" height="38" rx="19" class="chip"/><text x="194" y="100" class="amber" font-size="13" font-weight="900">Export CSV</text></g>
  </g>
  <g transform="translate(430 430)">
    <g filter="url(#shadow)"><rect width="530" height="312" rx="34" class="panel"/><g class="sans" transform="translate(28 32)"><text x="0" y="0" class="serif cream" font-size="30" font-weight="700">Mexico Finca Las Chicharras</text><text x="0" y="32" class="muted" font-size="14">bodhi_leaf · Chiapas, Mexico · Washed</text><text x="0" y="88" class="amber" font-size="34" font-weight="900">$9.49/lb</text><rect x="180" y="60" width="150" height="42" rx="21" fill="#49ead7" fill-opacity="0.13"/><text x="204" y="86" class="teal" font-size="13" font-weight="900">HIGH CONFIDENCE</text><text x="0" y="144" class="cream" font-size="15" font-weight="800">Process analysis</text><text x="0" y="174" class="muted" font-size="14">10–14 hour fermentation · raised beds · supplier evidence available</text><rect y="218" width="474" height="14" rx="7" fill="#fff7e8" fill-opacity="0.1"/><rect y="218" width="342" height="14" rx="7" fill="#49ead7" fill-opacity="0.75"/><text x="0" y="270" class="muted" font-size="13">Bourbon, Caturra, Marsellesa · 1250–1600 MASL</text></g></g>
    <g transform="translate(562 0)" filter="url(#shadow)"><rect width="530" height="312" rx="34" class="panel"/><g class="sans" transform="translate(28 32)"><text x="0" y="0" class="serif cream" font-size="30" font-weight="700">Jamaica Blue Mountain</text><text x="0" y="32" class="muted" font-size="14">sea_island · Blue Baron Estate · Washed</text><text x="0" y="88" class="amber" font-size="34" font-weight="900">$101.00/lb</text><rect x="210" y="60" width="96" height="42" rx="21" fill="#f6b35e" fill-opacity="0.16"/><text x="236" y="86" class="amber" font-size="13" font-weight="900">RARE</text><text x="0" y="144" class="cream" font-size="15" font-weight="800">Process analysis</text><text x="0" y="174" class="muted" font-size="14">Fermented with natural spring water · structured disclosure</text><rect y="218" width="474" height="14" rx="7" fill="#fff7e8" fill-opacity="0.1"/><rect y="218" width="420" height="14" rx="7" fill="#f6b35e" fill-opacity="0.75"/><text x="0" y="270" class="muted" font-size="13">Typica · 610–914 MASL · Peaberry</text></g></g>
  </g>
  <g transform="translate(430 780)">
    <g filter="url(#shadow)"><rect width="530" height="312" rx="34" class="panel"/><g class="sans" transform="translate(28 32)"><text x="0" y="0" class="serif cream" font-size="30" font-weight="700">Dominican Red Honey</text><text x="0" y="32" class="muted" font-size="14">cafe_kreyol · Ramirez Estate · Honey</text><text x="0" y="88" class="amber" font-size="34" font-weight="900">$12.80/lb</text><rect x="190" y="60" width="164" height="42" rx="21" fill="#49ead7" fill-opacity="0.13"/><text x="214" y="86" class="teal" font-size="13" font-weight="900">EVIDENCE READY</text><text x="0" y="144" class="cream" font-size="15" font-weight="800">Price ladder</text><rect y="170" width="86" height="64" rx="14" class="chip"/><text x="22" y="195" class="muted" font-size="12">1 lb</text><text x="18" y="220" class="cream" font-size="16" font-weight="900">$12.80</text><rect x="104" y="158" width="86" height="76" rx="14" fill="#fff7e8" fill-opacity="0.1"/><text x="126" y="188" class="muted" font-size="12">10 lb</text><text x="122" y="216" class="cream" font-size="16" font-weight="900">$11.95</text><rect x="208" y="140" width="86" height="94" rx="14" fill="#49ead7" fill-opacity="0.14"/><text x="229" y="180" class="muted" font-size="12">50 lb</text><text x="226" y="214" class="teal" font-size="16" font-weight="900">$11.39</text></g></g>
    <g transform="translate(562 0)" filter="url(#shadow)"><rect width="530" height="312" rx="34" class="panel"/><g class="sans" transform="translate(28 32)"><text x="0" y="0" class="serif cream" font-size="30" font-weight="700">Hawaii Kona Purple Mountain</text><text x="0" y="32" class="muted" font-size="14">coffee_bean_corral · Natural · organic farmed</text><text x="0" y="88" class="amber" font-size="34" font-weight="900">$53.95/lb</text><text x="0" y="144" class="cream" font-size="15" font-weight="800">Traceability highlights</text><text x="0" y="174" class="muted" font-size="14">2000 ft elevation · hand-picked · sun-dried · large bean size</text><rect y="216" width="190" height="40" rx="20" class="chip"/><text x="28" y="241" class="cream" font-size="13" font-weight="900">Open supplier page</text><rect x="208" y="216" width="168" height="40" rx="20" fill="#49ead7" fill-opacity="0.12"/><text x="236" y="241" class="teal" font-size="13" font-weight="900">Find similar lots</text></g></g>
  </g>
</svg>
