<svg width="362" height="346" viewBox="0 0 362 346" fill="none" xmlns="http://www.w3.org/2000/svg">
<path d="M140.6 343.5C120 339.9 100.4 332 82.5 320.1C53.6 300.8 31.1 273.6 20.4 244.9C18.2 239 15.6 233.1 6.89999 213.8C5.89999 211.5 5 208.3 5 206.8C5 205.3 3.9 200.7 2.5 196.6C0.3 190 0 187.3 0 173.9C0 158.7 -6.19888e-06 158.7 4.39999 145.9C6.79999 138.9 9.49999 131.3 10.4 129.1C11.2 126.9 11.9 123.9 12 122.5C12 118.6 17.5 107.1 23.4 98.6C26.3 94.5 29.4 89 30.3 86.5C31.3 84 33.6 79.3 35.5 76.1C37.4 73 39 69.8 39 69.1C39 68.4 39.8 66.8 40.9 65.5C41.9 64.2 43.1 62 43.5 60.7C44.6 57.1 56.7 45.7 71.1 34.7C77.3 29.9 88.7 27 106.5 25.6C112.6 25.2 118.9 24.5 120.5 24.1C122.2 23.8 126.7 22.8 130.5 22C134.4 21.1 140 19.2 143.1 17.6C153 12.5 170.5 11.4 183 15.2C188 16.7 207.1 17.1 208.6 15.7C211.2 13.3 222.5 7.9 230.5 5.4C248.5 -0.5 275.2 -0.800002 293.7 4.5C324 13.2 349 37.7 358.6 68.1C361.3 76.7 361.5 77.9 361.5 97.1C361.5 116.3 361.4 117.5 358.7 126.1C355.3 136.9 348.8 149.3 342.3 157.5C337.5 163.5 337.5 163.5 337.4 183.8C337.2 213.8 333.3 232.3 322.6 255.1C308.5 285 279.4 314.4 248.1 330.1C237.3 335.5 219 341.3 205.6 343.6C189.5 346.3 156.7 346.3 140.6 343.5ZM198 314.8C205.4 313.8 223.2 308.2 227 305.8C228.4 304.9 232.6 303.1 236.4 301.9C240.3 300.7 244.6 298.8 246 297.8C247.5 296.7 250.9 294.6 253.6 293.2C256.3 291.8 262.1 287 266.5 282.6C270.9 278.1 276.3 273.4 278.5 272.1C280.7 270.8 283.8 268.2 285.3 266.4C288.5 262.7 303 240.5 303 239.4C303 239 304.4 235.6 306.2 231.9C307.9 228.1 309.7 223.1 310.1 220.6C312.2 208.6 313.1 204.6 314.6 199.1C316.2 193 318.1 181.4 317.5 180.8C317.3 180.6 313.7 182.2 309.4 184.4C305 186.5 297.7 189.4 293 190.7C285.2 192.9 282.7 193.1 263.5 193.1C249.2 193.1 241.2 192.7 238.5 191.8C236.3 191.1 232.2 189.9 229.3 189.1C215.9 185.4 196.7 171.7 185.5 157.9C173.9 143.4 167.8 128.3 165.8 108.4C163.7 87 167.4 67 176.6 49.9C181.1 41.8 181.1 41.8 178.3 41.2C174.7 40.4 155 42.1 144.5 44.1C117 49.4 91.5 63.8 69.5 86.7C40.8 116.6 27.2 152 29.3 191.4C30.5 212 35.1 229.3 42.4 240.1C47.5 247.5 47.5 247.5 52.9 251.4C60.1 256.6 65.4 261.4 82.8 278.3C101.3 296.3 105.7 299.6 114.5 302.1C117.8 303 123.3 304.6 126.6 305.7C130 306.7 134.2 307.6 136 307.6C138.8 307.6 148.8 310.2 159.6 313.6C161.3 314.2 165.1 314.6 168.1 314.7C171.1 314.7 174.4 315.1 175.5 315.6C177.7 316.6 187.7 316.2 198 314.8ZM275.2 165.7C279.7 164.7 289.7 162 292 159.6C301.8 149.4 306.2 147.038 306.2 141.738C306.2 135.538 306.5 129.8 298.9 116.8C293.6 105.1 293.986 104.238 286.386 93.7379C280.886 86.1393 268.9 75.4 254 65.4C243.3 58.3 232 51 228.5 51C227.7 51 225 49 218.5 47.6C211.5 45 210.1 46.5 206.1 49C201.8 51.7 195 59.3 195 61.3C195 62 194.6 63.4 194.1 64.4C193.5 65.3 191.2 70.2 188.8 75.1C184.5 84.1 184.5 84.1 184.5 97.6C184.5 110.7 184.6 111.3 187.5 116.8C191.2 123.9 204.4 143.2 207.9 146.7C209.3 148.1 212.1 150.3 214 151.6C215.9 152.9 219.1 155.5 221.2 157.4C225.4 161.4 229.1 162.4 243.5 163.5C249 164 255.5 165.1 258 165.9C262.7 167.6 267.3 167.5 275.2 165.7ZM331.2 118.3C332.5 114.5 333.8 101 334.6 83.7C335.3 67.6 334 62.7 326.4 54.4C323.4 51.2 321 48 321 47.1C321 43.6 305.7 31.9 296.5 28.3C275.5 20.1 268.9 19.1 251 21.3C242.6 22.3 232.6 26.1 233.6 27.8C234.7 29.5 242.1 32.6 245.2 32.6C251.9 32.6 258.7 38.1 291.3 69.5C303.2 80.9 314.1 96 321.7 111.4C328.7 125.5 328.8 125.5 331.2 118.3Z" fill="black"/>
</svg>
