<svg width="362" height="345" viewBox="0 0 362 345" xmlns="http://www.w3.org/2000/svg">
<path d="M140.6 342.762C120 339.162 100.4 331.262 82.5 319.362C53.6 300.062 31.1 272.862 20.4 244.162C18.2 238.262 15.6 232.362 6.89999 213.062C5.89999 210.762 5 207.562 5 206.062C5 204.562 3.9 199.962 2.5 195.862C0.3 189.262 0 186.562 0 173.162C0 157.962 -6.19888e-06 157.962 4.39999 145.162C6.79999 138.162 9.49999 130.562 10.4 128.362C11.2 126.162 11.9 123.162 12 121.762C12 117.862 17.5 106.362 23.4 97.8621C26.3 93.7621 29.4 88.262 30.3 85.762C31.3 83.262 33.6 78.5621 35.5 75.3621C37.4 72.2621 39 69.0621 39 68.3621C39 67.6621 39.8 66.062 40.9 64.762C41.9 63.462 43.1 61.2621 43.5 59.9621C44.6 56.3621 56.7 44.9621 71.1 33.9621C77.3 29.1621 88.7 26.2621 106.5 24.8621C112.6 24.4621 118.9 23.7621 120.5 23.3621C122.2 23.0621 126.7 22.0621 130.5 21.2621C134.4 20.3621 140 18.4621 143.1 16.8621C153 11.7621 170.5 10.662 183 14.462C188 15.962 207.1 16.362 208.6 14.962C211.2 12.562 222.5 7.16205 230.5 4.66205C248.5 -1.23795 275.2 -1.53795 293.7 3.76205C324 12.4621 349 36.9621 358.6 67.3621C361.3 75.9621 361.5 77.1621 361.5 96.3621C361.5 115.562 361.4 116.762 358.7 125.362C355.3 136.162 348.8 148.562 342.3 156.762C337.5 162.762 337.5 162.762 337.4 183.062C337.2 213.062 333.3 231.562 322.6 254.362C308.5 284.262 279.4 313.662 248.1 329.362C237.3 334.762 219 340.562 205.6 342.862C189.5 345.562 156.7 345.562 140.6 342.762ZM198 314.062C205.4 313.062 223.2 307.462 227 305.062C228.4 304.162 232.6 302.362 236.4 301.162C240.3 299.962 244.6 298.062 246 297.062C247.5 295.962 250.9 293.862 253.6 292.462C256.3 291.062 262.1 286.262 266.5 281.862C270.9 277.362 276.3 272.662 278.5 271.362C280.7 270.062 283.8 267.462 285.3 265.662C288.5 261.962 303 239.762 303 238.662C303 238.262 304.4 234.862 306.2 231.162C307.9 227.362 309.7 222.362 310.1 219.862C312.2 207.862 313.1 203.862 314.6 198.362C316.2 192.262 318.1 180.662 317.5 180.062C317.3 179.862 313.7 181.462 309.4 183.662C305 185.762 297.7 188.662 293 189.962C285.2 192.162 282.7 192.362 263.5 192.362C249.2 192.362 241.2 191.962 238.5 191.062C236.3 190.362 232.2 189.162 229.3 188.362C215.9 184.662 196.7 170.962 185.5 157.162C173.9 142.662 167.8 127.562 165.8 107.662C163.7 86.2621 167.4 66.2621 176.6 49.1621C181.1 41.0621 181.1 41.0621 178.3 40.4621C174.7 39.6621 155 41.3621 144.5 43.3621C117 48.6621 91.5 63.0621 69.5 85.9621C40.8 115.862 27.2 151.262 29.3 190.662C30.5 211.262 35.1 228.562 42.4 239.362C47.5 246.762 47.5 246.762 52.9 250.662C60.1 255.862 65.4 260.662 82.8 277.562C101.3 295.562 105.7 298.862 114.5 301.362C117.8 302.262 123.3 303.862 126.6 304.962C130 305.962 134.2 306.862 136 306.862C138.8 306.862 148.8 309.462 159.6 312.862C161.3 313.462 165.1 313.862 168.1 313.962C171.1 313.962 174.4 314.362 175.5 314.862C177.7 315.862 187.7 315.462 198 314.062ZM275.2 164.962C279.7 163.962 289.7 161.262 292 158.862C301.8 148.662 306.2 146.3 306.2 141C306.2 134.8 306.5 129.062 298.9 116.062C293.6 104.362 293.986 103.5 286.386 93C280.886 85.4013 268.9 74.6621 254 64.6621C243.3 57.5621 232 50.2621 228.5 50.2621C227.7 50.2621 225 48.2621 218.5 46.8621C211.5 44.2621 210.1 45.7621 206.1 48.2621C201.8 50.9621 195 58.562 195 60.562C195 61.262 194.6 62.6621 194.1 63.6621C193.5 64.5621 191.2 69.4621 188.8 74.3621C184.5 83.3621 184.5 83.3621 184.5 96.8621C184.5 109.962 184.6 110.562 187.5 116.062C191.2 123.162 204.4 142.462 207.9 145.962C209.3 147.362 212.1 149.562 214 150.862C215.9 152.162 219.1 154.762 221.2 156.662C225.4 160.662 229.1 161.662 243.5 162.762C249 163.262 255.5 164.362 258 165.162C262.7 166.862 267.3 166.762 275.2 164.962ZM331.2 117.562C332.5 113.762 333.8 100.262 334.6 82.9621C335.3 66.8621 334 61.9621 326.4 53.6621C323.4 50.4621 321 47.2621 321 46.3621C321 42.8621 305.7 31.162 296.5 27.562C275.5 19.362 268.9 18.362 251 20.562C242.6 21.562 232.6 25.362 233.6 27.062C234.7 28.762 242.1 31.8621 245.2 31.8621C251.9 31.8621 258.7 37.362 291.3 68.762C303.2 80.162 314.1 95.2621 321.7 110.662C328.7 124.762 328.8 124.762 331.2 117.562Z" fill="#F9A57B"/>
</svg>
