<svg width="2101" height="525" viewBox="0 0 2101 525" fill="none" xmlns="http://www.w3.org/2000/svg">
<circle cx="262.5" cy="262.5" r="262.5" fill="#F9A57B"/>
<ellipse cx="242.411" cy="274.034" rx="104.188" ry="163.452" transform="rotate(-25.9612 242.411 274.034)" stroke="white" stroke-width="27"/>
<ellipse cx="323.193" cy="217.918" rx="100.451" ry="99.0536" transform="rotate(-25.9612 323.193 217.918)" stroke="white" stroke-width="27"/>
<path d="M676.549 201.635V422.094H635.362V166.088H673.302L676.549 201.635ZM797.032 256.835V260.424C797.032 273.868 795.437 286.343 792.247 297.851C789.171 309.244 784.557 319.213 778.404 327.758C772.366 336.189 764.903 342.74 756.017 347.411C747.13 352.082 736.876 354.418 725.255 354.418C713.748 354.418 703.665 352.31 695.006 348.095C686.461 343.765 679.226 337.67 673.302 329.809C667.377 321.947 662.592 312.719 658.946 302.123C655.414 291.413 652.908 279.678 651.427 266.918V253.075C652.908 239.517 655.414 227.213 658.946 216.161C662.592 205.11 667.377 195.596 673.302 187.621C679.226 179.646 686.461 173.493 695.006 169.164C703.551 164.835 713.52 162.67 724.913 162.67C736.534 162.67 746.845 164.949 755.846 169.506C764.846 173.949 772.423 180.329 778.575 188.646C784.728 196.85 789.342 206.762 792.418 218.383C795.494 229.89 797.032 242.707 797.032 256.835ZM755.846 260.424V256.835C755.846 248.29 755.048 240.372 753.453 233.08C751.858 225.674 749.352 219.18 745.934 213.598C742.516 208.015 738.129 203.686 732.774 200.609C727.534 197.419 721.21 195.824 713.805 195.824C706.513 195.824 700.247 197.077 695.006 199.584C689.765 201.977 685.379 205.338 681.847 209.667C678.315 213.996 675.58 219.066 673.644 224.877C671.707 230.574 670.34 236.783 669.542 243.505V276.659C670.909 284.862 673.245 292.382 676.549 299.218C679.853 306.054 684.524 311.522 690.562 315.624C696.715 319.612 704.576 321.605 714.146 321.605C721.552 321.605 727.875 320.01 733.116 316.82C738.357 313.63 742.63 309.244 745.934 303.661C749.352 297.965 751.858 291.413 753.453 284.008C755.048 276.602 755.846 268.741 755.846 260.424ZM936.321 307.421V166.088H977.679V351H938.714L936.321 307.421ZM942.132 268.969L955.975 268.627C955.975 281.046 954.607 292.496 951.873 302.978C949.139 313.345 944.923 322.403 939.227 330.15C933.53 337.784 926.238 343.765 917.352 348.095C908.465 352.31 897.812 354.418 885.394 354.418C876.393 354.418 868.133 353.108 860.613 350.487C853.094 347.867 846.6 343.822 841.131 338.354C835.776 332.885 831.618 325.764 828.655 316.991C825.693 308.218 824.212 297.737 824.212 285.546V166.088H865.398V285.888C865.398 292.61 866.196 298.249 867.791 302.807C869.386 307.25 871.551 310.839 874.285 313.573C877.02 316.308 880.21 318.244 883.855 319.384C887.501 320.523 891.375 321.093 895.477 321.093C907.212 321.093 916.44 318.814 923.162 314.257C929.998 309.586 934.84 303.319 937.688 295.458C940.651 287.597 942.132 278.767 942.132 268.969ZM1054.25 201.293V351H1013.06V166.088H1052.37L1054.25 201.293ZM1110.82 164.892L1110.47 203.173C1107.97 202.717 1105.23 202.375 1102.27 202.147C1099.42 201.92 1096.57 201.806 1093.73 201.806C1086.66 201.806 1080.45 202.831 1075.1 204.882C1069.74 206.819 1065.24 209.667 1061.6 213.427C1058.06 217.073 1055.33 221.516 1053.39 226.757C1051.46 231.998 1050.32 237.865 1049.98 244.359L1040.58 245.043C1040.58 233.422 1041.72 222.655 1043.99 212.743C1046.27 202.831 1049.69 194.115 1054.25 186.596C1058.92 179.076 1064.73 173.209 1071.68 168.993C1078.74 164.778 1086.89 162.67 1096.12 162.67C1098.62 162.67 1101.3 162.898 1104.15 163.354C1107.11 163.809 1109.33 164.322 1110.82 164.892ZM1203.35 318.358L1248.64 166.088H1291.37L1227.11 351H1200.45L1203.35 318.358ZM1168.66 166.088L1214.8 319.042L1217.03 351H1190.37L1125.77 166.088H1168.66ZM1385.46 354.418C1371.78 354.418 1359.42 352.196 1348.37 347.753C1337.43 343.196 1328.09 336.872 1320.34 328.783C1312.71 320.694 1306.84 311.181 1302.74 300.243C1298.64 289.306 1296.59 277.514 1296.59 264.867V258.031C1296.59 243.562 1298.7 230.46 1302.91 218.725C1307.13 206.99 1313 196.964 1320.51 188.646C1328.03 180.215 1336.92 173.778 1347.17 169.335C1357.43 164.892 1368.54 162.67 1380.5 162.67C1393.72 162.67 1405.28 164.892 1415.19 169.335C1425.1 173.778 1433.31 180.045 1439.8 188.134C1446.41 196.109 1451.31 205.622 1454.5 216.674C1457.8 227.725 1459.46 239.916 1459.46 253.246V270.849H1316.58V241.283H1418.78V238.036C1418.55 230.631 1417.07 223.681 1414.34 217.187C1411.72 210.692 1407.67 205.451 1402.2 201.464C1396.74 197.476 1389.44 195.482 1380.33 195.482C1373.49 195.482 1367.4 196.964 1362.04 199.926C1356.8 202.774 1352.42 206.933 1348.88 212.401C1345.35 217.87 1342.62 224.478 1340.68 232.226C1338.86 239.859 1337.95 248.461 1337.95 258.031V264.867C1337.95 272.956 1339.03 280.476 1341.19 287.426C1343.47 294.262 1346.78 300.243 1351.11 305.37C1355.43 310.497 1360.68 314.542 1366.83 317.504C1372.98 320.352 1379.99 321.776 1387.85 321.776C1397.76 321.776 1406.59 319.783 1414.34 315.795C1422.09 311.807 1428.81 306.168 1434.5 298.876L1456.21 319.896C1452.22 325.707 1447.04 331.29 1440.66 336.645C1434.28 341.885 1426.47 346.158 1417.24 349.462C1408.13 352.766 1397.53 354.418 1385.46 354.418ZM1535.85 330.834L1586.1 166.088H1630.19L1556.02 379.198C1554.31 383.756 1552.09 388.712 1549.35 394.066C1546.62 399.421 1543.03 404.491 1538.59 409.276C1534.26 414.175 1528.85 418.106 1522.35 421.068C1515.86 424.145 1508 425.683 1498.77 425.683C1495.12 425.683 1491.59 425.341 1488.17 424.657C1484.87 424.088 1481.74 423.461 1478.77 422.777L1478.6 391.332C1479.74 391.446 1481.11 391.56 1482.7 391.674C1484.41 391.788 1485.78 391.845 1486.81 391.845C1493.64 391.845 1499.34 390.99 1503.9 389.281C1508.45 387.686 1512.16 385.066 1515 381.42C1517.97 377.774 1520.47 372.875 1522.52 366.723L1535.85 330.834ZM1507.48 166.088L1551.41 304.516L1558.75 347.924L1530.21 355.272L1463.05 166.088H1507.48ZM1632.68 260.595V256.664C1632.68 243.334 1634.61 230.972 1638.49 219.579C1642.36 208.072 1647.94 198.103 1655.24 189.672C1662.64 181.127 1671.64 174.519 1682.24 169.848C1692.95 165.062 1705.02 162.67 1718.47 162.67C1732.03 162.67 1744.1 165.062 1754.7 169.848C1765.41 174.519 1774.47 181.127 1781.87 189.672C1789.28 198.103 1794.92 208.072 1798.79 219.579C1802.66 230.972 1804.6 243.334 1804.6 256.664V260.595C1804.6 273.925 1802.66 286.286 1798.79 297.68C1794.92 309.073 1789.28 319.042 1781.87 327.587C1774.47 336.018 1765.47 342.626 1754.87 347.411C1744.27 352.082 1732.25 354.418 1718.81 354.418C1705.25 354.418 1693.12 352.082 1682.41 347.411C1671.81 342.626 1662.81 336.018 1655.41 327.587C1648 319.042 1642.36 309.073 1638.49 297.68C1634.61 286.286 1632.68 273.925 1632.68 260.595ZM1673.86 256.664V260.595C1673.86 268.912 1674.72 276.773 1676.43 284.179C1678.14 291.584 1680.81 298.078 1684.46 303.661C1688.11 309.244 1692.78 313.63 1698.47 316.82C1704.17 320.01 1710.95 321.605 1718.81 321.605C1726.44 321.605 1733.05 320.01 1738.63 316.82C1744.33 313.63 1749 309.244 1752.65 303.661C1756.29 298.078 1758.97 291.584 1760.68 284.179C1762.5 276.773 1763.42 268.912 1763.42 260.595V256.664C1763.42 248.461 1762.5 240.714 1760.68 233.422C1758.97 226.016 1756.24 219.465 1752.48 213.769C1748.83 208.072 1744.16 203.629 1738.46 200.438C1732.88 197.134 1726.22 195.482 1718.47 195.482C1710.72 195.482 1704 197.134 1698.3 200.438C1692.72 203.629 1688.11 208.072 1684.46 213.769C1680.81 219.465 1678.14 226.016 1676.43 233.422C1674.72 240.714 1673.86 248.461 1673.86 256.664ZM1866.48 201.293V351H1825.29V166.088H1864.6L1866.48 201.293ZM1923.05 164.892L1922.71 203.173C1920.2 202.717 1917.47 202.375 1914.5 202.147C1911.65 201.92 1908.81 201.806 1905.96 201.806C1898.89 201.806 1892.68 202.831 1887.33 204.882C1881.98 206.819 1877.47 209.667 1873.83 213.427C1870.3 217.073 1867.56 221.516 1865.63 226.757C1863.69 231.998 1862.55 237.865 1862.21 244.359L1852.81 245.043C1852.81 233.422 1853.95 222.655 1856.23 212.743C1858.51 202.831 1861.92 194.115 1866.48 186.596C1871.15 179.076 1876.96 173.209 1883.91 168.993C1890.98 164.778 1899.12 162.67 1908.35 162.67C1910.86 162.67 1913.53 162.898 1916.38 163.354C1919.35 163.809 1921.57 164.322 1923.05 164.892ZM2045.59 300.927C2045.59 296.825 2044.56 293.122 2042.51 289.818C2040.46 286.4 2036.53 283.324 2030.72 280.59C2025.02 277.855 2016.59 275.349 2005.43 273.07C1995.63 270.906 1986.63 268.342 1978.43 265.38C1970.34 262.304 1963.39 258.601 1957.58 254.271C1951.77 249.942 1947.27 244.815 1944.08 238.891C1940.89 232.966 1939.29 226.13 1939.29 218.383C1939.29 210.863 1940.94 203.743 1944.25 197.021C1947.55 190.299 1952.28 184.374 1958.43 179.247C1964.58 174.12 1972.05 170.076 1980.82 167.113C1989.71 164.151 1999.62 162.67 2010.55 162.67C2026.05 162.67 2039.32 165.29 2050.37 170.531C2061.54 175.658 2070.08 182.665 2076.01 191.552C2081.93 200.325 2084.9 210.237 2084.9 221.288H2043.71C2043.71 216.389 2042.46 211.832 2039.95 207.616C2037.56 203.287 2033.91 199.812 2029.01 197.191C2024.11 194.457 2017.96 193.09 2010.55 193.09C2003.49 193.09 1997.62 194.229 1992.95 196.508C1988.39 198.673 1984.98 201.521 1982.7 205.053C1980.53 208.585 1979.45 212.458 1979.45 216.674C1979.45 219.75 1980.02 222.541 1981.16 225.048C1982.41 227.44 1984.46 229.662 1987.31 231.713C1990.16 233.65 1994.03 235.473 1998.93 237.182C2003.95 238.891 2010.21 240.543 2017.73 242.138C2031.86 245.1 2043.99 248.917 2054.13 253.588C2064.39 258.145 2072.25 264.07 2077.72 271.361C2083.19 278.539 2085.92 287.654 2085.92 298.705C2085.92 306.908 2084.15 314.428 2080.62 321.264C2077.21 327.986 2072.19 333.853 2065.58 338.866C2058.98 343.765 2051.06 347.582 2041.83 350.316C2032.71 353.051 2022.46 354.418 2011.07 354.418C1994.32 354.418 1980.13 351.456 1968.51 345.531C1956.89 339.493 1948.06 331.802 1942.02 322.46C1936.1 313.004 1933.14 303.205 1933.14 293.065H1972.96C1973.41 300.699 1975.52 306.794 1979.28 311.352C1983.15 315.795 1987.94 319.042 1993.64 321.093C1999.45 323.03 2005.43 323.998 2011.58 323.998C2018.99 323.998 2025.19 323.03 2030.21 321.093C2035.22 319.042 2039.04 316.308 2041.66 312.89C2044.28 309.358 2045.59 305.37 2045.59 300.927Z" fill="black"/>
</svg>
