<svg width="1451" height="264" viewBox="0 0 1451 264" fill="none" xmlns="http://www.w3.org/2000/svg">
<path d="M41.5488 39.6348V260.094H0.362305V4.08789H38.3018L41.5488 39.6348ZM162.032 94.835V98.4238C162.032 111.868 160.437 124.343 157.247 135.851C154.171 147.244 149.557 157.213 143.404 165.758C137.366 174.189 129.903 180.74 121.017 185.411C112.13 190.082 101.876 192.418 90.2549 192.418C78.7477 192.418 68.6647 190.31 60.0059 186.095C51.4609 181.765 44.2262 175.67 38.3018 167.809C32.3773 159.947 27.5921 150.719 23.9463 140.123C20.4144 129.413 17.9079 117.678 16.4268 104.918V91.0752C17.9079 77.5173 20.4144 65.2126 23.9463 54.1611C27.5921 43.1097 32.3773 33.5964 38.3018 25.6211C44.2262 17.6458 51.4609 11.4935 60.0059 7.16406C68.5508 2.83464 78.5199 0.669922 89.9131 0.669922C101.534 0.669922 111.845 2.94857 120.846 7.50586C129.846 11.9492 137.423 18.3294 143.575 26.6465C149.728 34.8496 154.342 44.7617 157.418 56.3828C160.494 67.89 162.032 80.7074 162.032 94.835ZM120.846 98.4238V94.835C120.846 86.29 120.048 78.3717 118.453 71.0801C116.858 63.6745 114.352 57.1803 110.934 51.5977C107.516 46.015 103.129 41.6855 97.7744 38.6094C92.5335 35.4193 86.2103 33.8242 78.8047 33.8242C71.513 33.8242 65.2467 35.0775 60.0059 37.584C54.765 39.9766 50.3786 43.3376 46.8467 47.667C43.3148 51.9964 40.5804 57.0664 38.6436 62.877C36.7067 68.5736 35.3395 74.7829 34.542 81.5049V114.659C35.9092 122.862 38.2448 130.382 41.5488 137.218C44.8529 144.054 49.5241 149.522 55.5625 153.624C61.7148 157.612 69.5762 159.605 79.1465 159.605C86.5521 159.605 92.8753 158.01 98.1162 154.82C103.357 151.63 107.63 147.244 110.934 141.661C114.352 135.965 116.858 129.413 118.453 122.008C120.048 114.602 120.846 106.741 120.846 98.4238ZM301.321 145.421V4.08789H342.679V189H303.714L301.321 145.421ZM307.132 106.969L320.975 106.627C320.975 119.046 319.607 130.496 316.873 140.978C314.139 151.345 309.923 160.403 304.227 168.15C298.53 175.784 291.238 181.765 282.352 186.095C273.465 190.31 262.812 192.418 250.394 192.418C241.393 192.418 233.133 191.108 225.613 188.487C218.094 185.867 211.6 181.822 206.131 176.354C200.776 170.885 196.618 163.764 193.655 154.991C190.693 146.218 189.212 135.737 189.212 123.546V4.08789H230.398V123.888C230.398 130.61 231.196 136.249 232.791 140.807C234.386 145.25 236.551 148.839 239.285 151.573C242.02 154.308 245.21 156.244 248.855 157.384C252.501 158.523 256.375 159.093 260.477 159.093C272.212 159.093 281.44 156.814 288.162 152.257C294.998 147.586 299.84 141.319 302.688 133.458C305.651 125.597 307.132 116.767 307.132 106.969ZM419.248 39.293V189H378.062V4.08789H417.368L419.248 39.293ZM475.815 2.8916L475.474 41.1729C472.967 40.7171 470.233 40.3753 467.271 40.1475C464.422 39.9196 461.574 39.8057 458.726 39.8057C451.662 39.8057 445.452 40.8311 440.098 42.8818C434.743 44.8187 430.243 47.667 426.597 51.4268C423.065 55.0726 420.33 59.516 418.394 64.7568C416.457 69.9977 415.317 75.8652 414.976 82.3594L405.576 83.043C405.576 71.4219 406.715 60.6553 408.994 50.7432C411.273 40.8311 414.691 32.1152 419.248 24.5957C423.919 17.0762 429.73 11.2087 436.68 6.99316C443.743 2.77767 451.89 0.669922 461.118 0.669922C463.625 0.669922 466.302 0.897786 469.15 1.35352C472.113 1.80924 474.334 2.32194 475.815 2.8916ZM568.354 156.358L613.642 4.08789H656.366L592.108 189H565.448L568.354 156.358ZM533.661 4.08789L579.804 157.042L582.025 189H555.365L490.766 4.08789H533.661ZM750.456 192.418C736.784 192.418 724.423 190.196 713.371 185.753C702.434 181.196 693.091 174.872 685.344 166.783C677.71 158.694 671.843 149.181 667.741 138.243C663.64 127.306 661.589 115.514 661.589 102.867V96.0312C661.589 81.5618 663.697 68.4596 667.912 56.7246C672.128 44.9896 677.995 34.9635 685.515 26.6465C693.034 18.2155 701.921 11.7783 712.175 7.33496C722.429 2.8916 733.537 0.669922 745.5 0.669922C758.716 0.669922 770.28 2.8916 780.192 7.33496C790.104 11.7783 798.308 18.0446 804.802 26.1338C811.41 34.109 816.309 43.6224 819.499 54.6738C822.803 65.7253 824.455 77.916 824.455 91.2461V108.849H681.584V79.2832H783.781V76.0361C783.553 68.6305 782.072 61.6807 779.338 55.1865C776.717 48.6924 772.673 43.4515 767.204 39.4639C761.735 35.4762 754.444 33.4824 745.329 33.4824C738.493 33.4824 732.398 34.9635 727.043 37.9258C721.802 40.7741 717.416 44.9326 713.884 50.4014C710.352 55.8701 707.618 62.4782 705.681 70.2256C703.858 77.859 702.946 86.4609 702.946 96.0312V102.867C702.946 110.956 704.029 118.476 706.193 125.426C708.472 132.262 711.776 138.243 716.105 143.37C720.435 148.497 725.676 152.542 731.828 155.504C737.98 158.352 744.987 159.776 752.849 159.776C762.761 159.776 771.59 157.783 779.338 153.795C787.085 149.807 793.807 144.168 799.504 136.876L821.208 157.896C817.22 163.707 812.036 169.29 805.656 174.645C799.276 179.885 791.472 184.158 782.243 187.462C773.129 190.766 762.533 192.418 750.456 192.418ZM900.854 168.834L951.098 4.08789H995.189L921.02 217.198C919.311 221.756 917.089 226.712 914.354 232.066C911.62 237.421 908.031 242.491 903.588 247.276C899.258 252.175 893.847 256.106 887.353 259.068C880.858 262.145 872.997 263.683 863.769 263.683C860.123 263.683 856.591 263.341 853.173 262.657C849.869 262.088 846.736 261.461 843.773 260.777L843.603 229.332C844.742 229.446 846.109 229.56 847.704 229.674C849.413 229.788 850.78 229.845 851.806 229.845C858.642 229.845 864.338 228.99 868.896 227.281C873.453 225.686 877.156 223.066 880.004 219.42C882.966 215.774 885.473 210.875 887.523 204.723L900.854 168.834ZM872.484 4.08789L916.405 142.516L923.754 185.924L895.214 193.272L828.051 4.08789H872.484ZM997.678 98.5947V94.6641C997.678 81.334 999.615 68.9723 1003.49 57.5791C1007.36 46.0719 1012.94 36.1029 1020.24 27.6719C1027.64 19.127 1036.64 12.5189 1047.24 7.84766C1057.95 3.0625 1070.02 0.669922 1083.47 0.669922C1097.03 0.669922 1109.1 3.0625 1119.7 7.84766C1130.41 12.5189 1139.47 19.127 1146.87 27.6719C1154.28 36.1029 1159.92 46.0719 1163.79 57.5791C1167.66 68.9723 1169.6 81.334 1169.6 94.6641V98.5947C1169.6 111.925 1167.66 124.286 1163.79 135.68C1159.92 147.073 1154.28 157.042 1146.87 165.587C1139.47 174.018 1130.47 180.626 1119.87 185.411C1109.27 190.082 1097.25 192.418 1083.81 192.418C1070.25 192.418 1058.12 190.082 1047.41 185.411C1036.81 180.626 1027.81 174.018 1020.41 165.587C1013 157.042 1007.36 147.073 1003.49 135.68C999.615 124.286 997.678 111.925 997.678 98.5947ZM1038.86 94.6641V98.5947C1038.86 106.912 1039.72 114.773 1041.43 122.179C1043.14 129.584 1045.81 136.078 1049.46 141.661C1053.11 147.244 1057.78 151.63 1063.47 154.82C1069.17 158.01 1075.95 159.605 1083.81 159.605C1091.44 159.605 1098.05 158.01 1103.63 154.82C1109.33 151.63 1114 147.244 1117.65 141.661C1121.29 136.078 1123.97 129.584 1125.68 122.179C1127.5 114.773 1128.42 106.912 1128.42 98.5947V94.6641C1128.42 86.4609 1127.5 78.7135 1125.68 71.4219C1123.97 64.0163 1121.24 57.4652 1117.48 51.7686C1113.83 46.0719 1109.16 41.6286 1103.46 38.4385C1097.88 35.1344 1091.22 33.4824 1083.47 33.4824C1075.72 33.4824 1069 35.1344 1063.3 38.4385C1057.72 41.6286 1053.11 46.0719 1049.46 51.7686C1045.81 57.4652 1043.14 64.0163 1041.43 71.4219C1039.72 78.7135 1038.86 86.4609 1038.86 94.6641ZM1231.48 39.293V189H1190.29V4.08789H1229.6L1231.48 39.293ZM1288.05 2.8916L1287.71 41.1729C1285.2 40.7171 1282.47 40.3753 1279.5 40.1475C1276.65 39.9196 1273.81 39.8057 1270.96 39.8057C1263.89 39.8057 1257.68 40.8311 1252.33 42.8818C1246.98 44.8187 1242.47 47.667 1238.83 51.4268C1235.3 55.0726 1232.56 59.516 1230.63 64.7568C1228.69 69.9977 1227.55 75.8652 1227.21 82.3594L1217.81 83.043C1217.81 71.4219 1218.95 60.6553 1221.23 50.7432C1223.51 40.8311 1226.92 32.1152 1231.48 24.5957C1236.15 17.0762 1241.96 11.2087 1248.91 6.99316C1255.98 2.77767 1264.12 0.669922 1273.35 0.669922C1275.86 0.669922 1278.53 0.897786 1281.38 1.35352C1284.35 1.80924 1286.57 2.32194 1288.05 2.8916ZM1410.59 138.927C1410.59 134.825 1409.56 131.122 1407.51 127.818C1405.46 124.4 1401.53 121.324 1395.72 118.59C1390.02 115.855 1381.59 113.349 1370.43 111.07C1360.63 108.906 1351.63 106.342 1343.43 103.38C1335.34 100.304 1328.39 96.6009 1322.58 92.2715C1316.77 87.9421 1312.27 82.8151 1309.08 76.8906C1305.89 70.9661 1304.29 64.1302 1304.29 56.3828C1304.29 48.8633 1305.94 41.7425 1309.25 35.0205C1312.55 28.2985 1317.28 22.374 1323.43 17.2471C1329.58 12.1201 1337.05 8.07552 1345.82 5.11328C1354.71 2.15104 1364.62 0.669922 1375.55 0.669922C1391.05 0.669922 1404.32 3.29036 1415.37 8.53125C1426.54 13.6582 1435.08 20.665 1441.01 29.5518C1446.93 38.3245 1449.9 48.2367 1449.9 59.2881H1408.71C1408.71 54.389 1407.46 49.8317 1404.95 45.6162C1402.56 41.2868 1398.91 37.8118 1394.01 35.1914C1389.11 32.457 1382.96 31.0898 1375.55 31.0898C1368.49 31.0898 1362.62 32.2292 1357.95 34.5078C1353.39 36.6725 1349.98 39.5208 1347.7 43.0527C1345.53 46.5846 1344.45 50.4583 1344.45 54.6738C1344.45 57.75 1345.02 60.5413 1346.16 63.0479C1347.41 65.4404 1349.46 67.6621 1352.31 69.7129C1355.16 71.6497 1359.03 73.4727 1363.93 75.1816C1368.95 76.8906 1375.21 78.5426 1382.73 80.1377C1396.86 83.0999 1408.99 86.9167 1419.13 91.5879C1429.39 96.1452 1437.25 102.07 1442.72 109.361C1448.19 116.539 1450.92 125.654 1450.92 136.705C1450.92 144.908 1449.15 152.428 1445.62 159.264C1442.21 165.986 1437.19 171.853 1430.58 176.866C1423.98 181.765 1416.06 185.582 1406.83 188.316C1397.71 191.051 1387.46 192.418 1376.07 192.418C1359.32 192.418 1345.13 189.456 1333.51 183.531C1321.89 177.493 1313.06 169.802 1307.02 160.46C1301.1 151.004 1298.14 141.205 1298.14 131.065H1337.96C1338.41 138.699 1340.52 144.794 1344.28 149.352C1348.15 153.795 1352.94 157.042 1358.64 159.093C1364.45 161.03 1370.43 161.998 1376.58 161.998C1383.99 161.998 1390.19 161.03 1395.21 159.093C1400.22 157.042 1404.04 154.308 1406.66 150.89C1409.28 147.358 1410.59 143.37 1410.59 138.927Z" fill="black"/>
</svg>
